<?xml version="1.0" encoding="utf-8"?>
<!-- Generator: Adobe Illustrator 19.1.0, SVG Export Plug-In . SVG Version: 6.00 Build 0)  -->
<svg version="1.1" id="Layer_1" xmlns="http://www.w3.org/2000/svg" xmlns:xlink="http://www.w3.org/1999/xlink" x="0px" y="0px"
	 viewBox="0 0 1920 1080" style="enable-background:new 0 0 1920 1080;" xml:space="preserve">
<style type="text/css">
	.st0{fill:#FFFFFF;}
	.st1{font-family:'Raleway-Light';}
	.st2{font-size:382.6161px;}
	.st3{fill:#FBB040;}
	.st4{fill:#FDBE68;}
</style>
<text transform="matrix(1 0 0 1 291.9152 568.4131)" class="st0 st1 st2">Letje</text>
<path class="st3" d="M935.2,282.3c-7.1,7-20.5,18.7-26.5,13.7c-6.6-5.5,4.9-23.2,10.2-30.7c-7.3-4.6-15.9-7.2-25.2-7.2
	c-26.3,0-47.6,21.3-47.6,47.6c0,26.3,21.3,47.6,47.6,47.6c26.3,0,47.6-21.3,47.6-47.6C941.4,297.3,939.2,289.2,935.2,282.3z"/>
<path class="st4" d="M908.8,296.3c-3.4-2.8-1.9-9.1,1-15.4c-4.6-3-10.1-4.7-16-4.7c-16.3,0-29.6,13.2-29.6,29.6s13.2,29.6,29.6,29.6
	c16.3,0,29.6-13.2,29.6-29.6c0-4.1-0.8-8-2.3-11.5C916.2,297.3,911.6,298.7,908.8,296.3z"/>
</svg>
